<?xml version="1.0" encoding="utf-8"?>
<!-- Generator: Adobe Illustrator 24.1.2, SVG Export Plug-In . SVG Version: 6.00 Build 0)  -->
<svg version="1.1" id="Layer_1" xmlns="http://www.w3.org/2000/svg" xmlns:xlink="http://www.w3.org/1999/xlink" x="0px" y="0px"
	 viewBox="0 0 575.2 657.7" style="enable-background:new 0 0 575.2 657.7;" xml:space="preserve">
<style type="text/css">
	.st0{fill:#185189;stroke:#185189;stroke-width:6;}
	.st1{fill:#185189;stroke:#185189;stroke-width:3;}
	.st2{fill:#185189;stroke:#185189;stroke-width:4;stroke-miterlimit:3.9992;}
	.st3{fill:#185189;stroke:#185189;stroke-width:3;stroke-miterlimit:3.9992;}
	.st4{fill:#185189;stroke:#185189;stroke-width:14;}
	.st5{fill:#185189;}
	.st6{fill:none;stroke:#185189;stroke-width:18.4618;}
	.st7{fill:none;stroke:#185189;stroke-width:18;}
</style>
<path class="st0" d="M284.3,101.7c-34,0-67,6.7-98,19.8c-30,12.7-56.9,30.9-80.1,54c-23.1,23.1-41.3,50.1-54,80.1
	c-13.1,31-19.8,64-19.8,98s6.7,67,19.8,98c12.7,30,30.9,56.9,54,80.1c23.1,23.1,50.1,41.3,80.1,54c31,13.1,64,19.8,98,19.8
	s67-6.7,98-19.8c30-12.7,56.9-30.9,80.1-54c23.1-23.1,41.3-50.1,54-80.1c13.1-31,19.8-64,19.8-98s-6.7-67-19.8-98
	c-12.7-30-30.9-56.9-54-80.1c-23.1-23.1-50.1-41.3-80.1-54C351.3,108.4,318.3,101.7,284.3,101.7 M284.3,90.6
	c145.3,0,263,117.8,263,263s-117.8,263-263,263s-263-117.8-263-263S139,90.6,284.3,90.6z"/>
<path id="Rectangle_108" class="st1" d="M287.4,132.2L287.4,132.2c8.6,0,15.5,6.9,15.5,15.5v36.6c0,8.6-6.9,15.5-15.5,15.5l0,0
	c-8.6,0-15.5-6.9-15.5-15.5v-36.6C271.9,139.1,278.8,132.2,287.4,132.2z"/>
<path id="Rectangle_109" class="st2" d="M449,202.5L449,202.5c6.4,5.6,7.1,15.4,1.4,21.9l-24.2,27.5c-5.6,6.4-15.4,7.1-21.9,1.4l0,0
	c-6.4-5.6-7.1-15.4-1.4-21.9l24.2-27.5C432.8,197.5,442.6,196.9,449,202.5z"/>
<path id="Rectangle_110" class="st1" d="M511.6,366.6L511.6,366.6c0,8.6-6.9,15.5-15.5,15.5h-36.6c-8.6,0-15.5-6.9-15.5-15.5l0,0
	c0-8.6,6.9-15.5,15.5-15.5h36.6C504.6,351.1,511.6,358,511.6,366.6z"/>
<path id="Rectangle_111" class="st3" d="M446.5,505.6L446.5,505.6c-5.6,6.4-15.4,7.1-21.9,1.4l-27.5-24.2
	c-6.4-5.6-7.1-15.4-1.4-21.9l0,0c5.6-6.4,15.4-7.1,21.9-1.4l27.5,24.2C451.5,489.4,452.1,499.2,446.5,505.6z"/>
<path id="Rectangle_112" class="st1" d="M129.1,366.6L129.1,366.6c0,8.6-6.9,15.5-15.5,15.5H77c-8.6,0-15.5-6.9-15.5-15.5l0,0
	c0-8.6,6.9-15.5,15.5-15.5h36.6C122.2,351.1,129.1,358,129.1,366.6z"/>
<path id="Rectangle_113" class="st1" d="M185,240.9L185,240.9c-6.1,6.1-15.9,6.1-21.9,0L137.1,215c-6.1-6.1-6.1-15.9,0-21.9l0,0
	c6.1-6.1,15.9-6.1,21.9,0L185,219C191,225,191,234.9,185,240.9z"/>
<path id="Rectangle_114" class="st1" d="M292.6,517.5L292.6,517.5c8.7,0,15.7,7,15.7,15.7v40.9c0,8.7-7,15.7-15.7,15.7l0,0
	c-8.7,0-15.7-7-15.7-15.7v-40.9C276.9,524.6,284,517.5,292.6,517.5z"/>
<path id="Rectangle_115" class="st1" d="M180,470.7L180,470.7c6.1,6.1,6.1,16.1,0,22.2l-28.9,28.9c-6.1,6.1-16.1,6.1-22.2,0l0,0
	c-6.1-6.1-6.1-16.1,0-22.2l28.9-28.9C163.9,464.5,173.9,464.5,180,470.7z"/>
<circle id="Ellipse_6" class="st4" cx="287.9" cy="369.9" r="30.5"/>
<path id="Path_35" class="st5" d="M283.5,212.3h7.7v130.9h-7.7V212.3z"/>
<path id="Path_36" class="st5" d="M308.4,362.6h85.2v7.9h-85.2V362.6z"/>
<path id="Line_32_1_" class="st6" d="M165.3,584.5"/>
<path id="Line_33_1_" class="st7" d="M417.7,578.3"/>
<path class="st5" d="M41.1,198.7L235.3,75.3C235.3,75.3,60.1-14.1,41.1,198.7z"/>
<path class="st5" d="M347.2,81.9l193.4,124.7C540.6,206.6,548.4,10.1,347.2,81.9z"/>
</svg>
